<svg xmlns="http://www.w3.org/2000/svg" viewBox="0 0 24 24" fill="#171A21">
  <path fill="#171A21" d="M11.979 0C5.678 0 .511 4.86.022 11.037l6.432 2.658c.545-.371 1.203-.59 1.912-.59.063 0 .125.004.188.006l2.861-4.142V8.91c0-2.495 2.028-4.524 4.524-4.524 2.494 0 4.524 2.031 4.524 4.527s-2.03 4.524-4.524 4.524h-.105l-4.076 2.911c0 .052.004.105.004.159 0 1.875-1.515 3.396-3.39 3.396-1.635 0-3.004-1.155-3.327-2.706L.516 14.87C1.944 20.106 6.702 24 12.333 24c6.627 0 12-5.373 12-12S18.605 0 11.979 0z"/>
</svg>
